<svg width="30" height="31" viewBox="0 0 30 31" fill="none" xmlns="http://www.w3.org/2000/svg">
<path fill-rule="evenodd" clip-rule="evenodd" d="M30.0001 15.5C30.0001 23.639 23.4021 30.2369 15.2632 30.2369C7.12428 30.2369 0.526367 23.639 0.526367 15.5C0.526367 7.36109 7.12428 0.763184 15.2632 0.763184C23.4021 0.763184 30.0001 7.36109 30.0001 15.5ZM16.0222 14.6524C18.2186 14.296 19.7102 12.2266 19.3538 10.0302C18.9974 7.83384 16.9279 6.34225 14.7316 6.69865C12.5352 7.05506 11.0436 9.12449 11.4 11.3209C11.7564 13.5172 13.8258 15.0088 16.0222 14.6524ZM10.8848 24.5914C8.50568 24.5914 6.57226 22.658 6.57226 20.2789C6.57226 17.8998 8.50568 15.9663 10.8848 15.9663H19.8688C22.2479 15.9663 24.1814 17.8998 24.1814 20.2789C24.1814 22.658 22.2479 24.5914 19.8688 24.5914H10.8848Z" fill="black"/>
</svg>
