<svg width="31" height="29" viewBox="0 0 31 29" fill="none" xmlns="http://www.w3.org/2000/svg">
<path d="M21.5508 0.500674H21.5539C23.657 0.500674 25.6925 1.47278 27.2064 3.23546C28.7223 5.00049 29.5841 7.40864 29.5841 9.93266C29.5841 12.1936 28.7476 14.4561 27.446 16.6036C26.1455 18.7492 24.3978 20.7516 22.619 22.4826C19.0605 25.9454 15.428 28.2738 15.1591 28.4407L15.1367 28.4547L15.1159 28.4709C15.0859 28.4942 15.0602 28.5 15.0421 28.5C15.0239 28.5 14.9982 28.4942 14.9683 28.4709L14.9474 28.4547L14.925 28.4407C14.6589 28.2755 11.0257 25.914 7.46597 22.4335C5.68673 20.6939 3.93855 18.687 2.63775 16.5469C1.33558 14.4046 0.5 12.1591 0.5 9.93266C0.5 7.40864 1.36182 5.00049 2.87774 3.23546C4.39163 1.47278 6.42712 0.500674 8.53018 0.500674V0.500721L8.53704 0.500627C9.69024 0.484807 10.8351 0.768581 11.8892 1.33559C12.9439 1.90289 13.8833 2.74082 14.6351 3.79398L15.0394 4.36033L15.4472 3.79649C16.2044 2.7495 17.1455 1.91559 18.2 1.34838C19.2539 0.781449 20.3976 0.493475 21.5508 0.500674Z" fill="black" stroke="black"/>
</svg>
