<svg width="135" height="33" viewBox="0 0 135 33" fill="none" xmlns="http://www.w3.org/2000/svg">
<path d="M6.851 1.643C7.24367 1.581 7.71383 1.5345 8.2615 1.5035C8.8195 1.4725 9.30517 1.457 9.7185 1.457C10.1112 1.457 10.5865 1.4725 11.1445 1.5035C11.7128 1.5345 12.1933 1.59133 12.586 1.674L19.251 22.4905C18.91 22.6868 18.4657 22.8367 17.918 22.94C17.3807 23.0433 16.8795 23.095 16.4145 23.095C15.6292 23.095 15.0143 22.9142 14.57 22.5525C14.1257 22.1805 13.7537 21.4623 13.454 20.398L11.2375 12.5395C10.9998 11.6715 10.7208 10.6485 10.4005 9.4705C10.0905 8.2925 9.80117 7.192 9.5325 6.169H9.3465C9.24317 6.73733 9.10367 7.37283 8.928 8.0755C8.75233 8.77817 8.56633 9.48083 8.37 10.1835C8.184 10.8758 8.00833 11.5062 7.843 12.0745L4.681 22.847C4.371 22.9193 4.04033 22.9658 3.689 22.9865C3.33767 23.0175 2.96567 23.033 2.573 23.033C2.201 23.033 1.77733 23.002 1.302 22.94C0.837 22.878 0.465 22.7953 0.186 22.692L0 22.4285L6.851 1.643ZM7.223 18.383C7.07833 18.383 6.90783 18.383 6.7115 18.383C6.5255 18.3727 6.3395 18.3675 6.1535 18.3675C5.9675 18.3572 5.797 18.352 5.642 18.352H3.038L4.5415 14.4925H6.8355C6.98017 14.4925 7.1455 14.4925 7.3315 14.4925C7.5175 14.4822 7.7035 14.477 7.8895 14.477C8.0755 14.4667 8.24083 14.4615 8.3855 14.4615H10.6485C10.8035 14.4615 10.9688 14.4667 11.1445 14.477C11.3305 14.477 11.5165 14.4822 11.7025 14.4925C11.8988 14.4925 12.0693 14.4925 12.214 14.4925H14.5855L15.841 18.352H13.2215C13.0768 18.352 12.9063 18.3572 12.71 18.3675C12.524 18.3675 12.3328 18.3727 12.1365 18.383C11.9505 18.383 11.7852 18.383 11.6405 18.383H7.223Z" fill="white"/>
<path d="M37.8333 3.3945C37.7817 4.09717 37.5233 4.78433 37.0583 5.456C36.6037 6.12767 36.1232 6.62883 35.6168 6.9595C34.8625 6.45317 34.0358 6.05017 33.1368 5.7505C32.2482 5.4405 31.3698 5.2855 30.5018 5.2855C29.4582 5.2855 28.554 5.5335 27.7893 6.0295C27.0247 6.5255 26.4305 7.29533 26.0068 8.339C25.5935 9.38267 25.3868 10.7363 25.3868 12.4C25.3868 14.818 25.8312 16.585 26.7198 17.701C27.6188 18.817 28.9002 19.375 30.5638 19.375C31.5765 19.375 32.4858 19.282 33.2918 19.096C34.0978 18.91 34.7643 18.7447 35.2913 18.6L37.8798 21.9945C37.2805 22.1908 36.5572 22.3923 35.7098 22.599C34.8728 22.7953 33.948 22.9555 32.9353 23.0795C31.9227 23.2138 30.848 23.281 29.7113 23.281C28.12 23.281 26.7353 23.0278 25.5573 22.5215C24.3793 22.0152 23.4028 21.2867 22.6278 20.336C21.8528 19.3853 21.2742 18.2383 20.8918 16.895C20.5095 15.5517 20.3183 14.043 20.3183 12.369C20.3183 10.4883 20.5922 8.8505 21.1398 7.4555C21.6875 6.05017 22.4315 4.8825 23.3718 3.9525C24.3122 3.0225 25.3713 2.33017 26.5493 1.8755C27.7273 1.4105 28.9467 1.178 30.2073 1.178C31.623 1.178 32.9818 1.38467 34.2838 1.798C35.5962 2.201 36.7793 2.73317 37.8333 3.3945ZM33.2298 17.0655C33.2298 16.3318 33.2557 15.5568 33.3073 14.7405C33.359 13.9138 33.483 13.1543 33.6793 12.462L37.8798 13.857V21.9945L33.2298 22.0565V17.0655ZM34.6093 10.788C35.839 10.788 36.6915 11.0773 37.1668 11.656C37.6422 12.2243 37.8798 12.958 37.8798 13.857V14.911H31.7728C30.9772 14.911 30.383 14.7612 29.9903 14.4615C29.5977 14.1618 29.4013 13.6193 29.4013 12.834C29.4013 12.5033 29.4323 12.152 29.4943 11.78C29.5667 11.408 29.6545 11.0773 29.7578 10.788H34.6093Z" fill="white"/>
<path d="M39.9505 20.9715C40.0125 20.2688 40.2295 19.5817 40.6015 18.91C40.9735 18.228 41.3972 17.6803 41.8725 17.267C42.7405 17.7837 43.7274 18.2538 44.833 18.6775C45.9387 19.0908 47.0444 19.2975 48.15 19.2975C49.049 19.2975 49.6949 19.0805 50.0875 18.6465C50.4802 18.2125 50.6765 17.7475 50.6765 17.2515C50.6765 16.9208 50.568 16.5437 50.351 16.12C50.134 15.686 49.5915 15.2882 48.7235 14.9265L44.988 13.3765C43.7067 12.8392 42.6475 12.121 41.8105 11.222C40.9735 10.323 40.555 9.13467 40.555 7.657C40.555 6.36533 40.8909 5.23383 41.5625 4.2625C42.2342 3.29117 43.1384 2.53684 44.275 1.9995C45.422 1.45183 46.6982 1.178 48.1035 1.178C49.5709 1.178 50.9452 1.36917 52.2265 1.7515C53.5182 2.13383 54.567 2.53683 55.373 2.9605C55.3317 3.6735 55.1612 4.36067 54.8615 5.022C54.5722 5.673 54.1847 6.22067 53.699 6.665C52.9137 6.293 51.994 5.952 50.94 5.642C49.886 5.32167 48.9405 5.1615 48.1035 5.1615C47.2149 5.1615 46.5794 5.363 46.197 5.766C45.825 6.169 45.639 6.57717 45.639 6.9905C45.639 7.38317 45.7682 7.7345 46.0265 8.0445C46.2952 8.3545 46.7705 8.65417 47.4525 8.9435L51.2655 10.509C52.2679 10.9223 53.1152 11.439 53.8075 12.059C54.5102 12.6687 55.0424 13.361 55.404 14.136C55.7657 14.9007 55.9465 15.7325 55.9465 16.6315C55.9465 17.8818 55.6417 19.0133 55.032 20.026C54.4327 21.0283 53.5285 21.824 52.3195 22.413C51.1105 22.9917 49.6019 23.281 47.7935 23.281C46.5432 23.281 45.2102 23.0847 43.7945 22.692C42.3789 22.289 41.0975 21.7155 39.9505 20.9715Z" fill="white"/>
<path d="M57.3459 21.7465C57.3665 21.2298 57.506 20.6512 57.7644 20.0105C58.033 19.3698 58.343 18.8635 58.6944 18.4915C59.3764 18.8428 60.079 19.1477 60.8024 19.406C61.536 19.654 62.2646 19.778 62.9879 19.778C63.5872 19.778 64.0367 19.6747 64.3364 19.468C64.6464 19.2613 64.8014 19.003 64.8014 18.693C64.8014 18.3933 64.6929 18.1298 64.4759 17.9025C64.2589 17.6648 63.8972 17.4582 63.3909 17.2825L61.6704 16.6625C60.9471 16.3938 60.2909 16.058 59.7019 15.655C59.1129 15.2417 58.6479 14.7405 58.3069 14.1515C57.9659 13.5522 57.7954 12.8392 57.7954 12.0125C57.7954 10.9585 58.0434 10.0492 58.5394 9.2845C59.0354 8.51983 59.7329 7.93083 60.6319 7.5175C61.5309 7.09383 62.5849 6.882 63.7939 6.882C64.7755 6.882 65.8037 7.01634 66.8784 7.285C67.9531 7.55367 68.8262 7.85333 69.4979 8.184C69.5186 8.556 69.4721 8.96933 69.3584 9.424C69.2447 9.87867 69.0794 10.2972 68.8624 10.6795C68.6557 11.0618 68.4232 11.3512 68.1649 11.5475C67.5242 11.2582 66.8267 10.9947 66.0724 10.757C65.3181 10.509 64.574 10.385 63.8404 10.385C63.427 10.385 63.1119 10.4832 62.8949 10.6795C62.6779 10.8758 62.5694 11.1083 62.5694 11.377C62.5694 11.6457 62.6624 11.873 62.8484 12.059C63.0344 12.245 63.334 12.4103 63.7474 12.555L65.6694 13.237C66.8474 13.6503 67.8291 14.2548 68.6144 15.0505C69.3997 15.8462 69.7924 16.9053 69.7924 18.228C69.7924 19.7677 69.1982 20.9973 68.0099 21.917C66.8319 22.8263 65.194 23.281 63.0964 23.281C61.9907 23.281 60.9367 23.126 59.9344 22.816C58.9424 22.5163 58.0795 22.1598 57.3459 21.7465Z" fill="white"/>
<path d="M77.073 22.816C76.391 22.94 75.5902 23.002 74.6705 23.002C73.8542 23.002 73.074 22.94 72.33 22.816V0.217001L72.547 0H74.438C75.3887 0 76.0655 0.217 76.4685 0.651001C76.8715 1.085 77.073 1.83934 77.073 2.914V22.816ZM85.5515 18.941C85.5515 19.5403 85.6084 20.1087 85.722 20.646C85.8357 21.173 86.032 21.6328 86.311 22.0255C85.9597 22.3148 85.5205 22.5628 84.9935 22.7695C84.4665 22.9658 83.8982 23.064 83.2885 23.064C82.3172 23.064 81.6404 22.8057 81.258 22.289C80.886 21.7723 80.7 21.0283 80.7 20.057V13.4695C80.7 12.7668 80.607 12.2502 80.421 11.9195C80.235 11.5785 79.8837 11.408 79.367 11.408C79.057 11.408 78.6902 11.4958 78.2665 11.6715C77.8429 11.8472 77.4192 12.1313 76.9955 12.524C76.5822 12.9063 76.2205 13.423 75.9105 14.074V9.8425C76.6339 9.1295 77.4192 8.48884 78.2665 7.9205C79.1242 7.35217 80.1059 7.068 81.2115 7.068C82.1519 7.068 82.9424 7.30567 83.583 7.781C84.234 8.246 84.7249 8.89183 85.0555 9.7185C85.3862 10.5452 85.5515 11.501 85.5515 12.586V18.941Z" fill="white"/>
<path d="M102.57 15.0815C102.57 16.7348 102.296 18.1763 101.748 19.406C101.2 20.6357 100.394 21.5915 99.3301 22.2735C98.2761 22.9452 96.9689 23.281 95.4086 23.281C93.8379 23.281 92.5204 22.94 91.4561 22.258C90.3917 21.576 89.5909 20.6202 89.0536 19.3905C88.5162 18.1608 88.2476 16.7245 88.2476 15.0815C88.2476 13.4178 88.5162 11.9763 89.0536 10.757C89.6012 9.52734 90.4072 8.57667 91.4716 7.905C92.5359 7.223 93.8482 6.882 95.4086 6.882C96.9792 6.882 98.2967 7.223 99.3611 7.905C100.425 8.587 101.226 9.54283 101.764 10.7725C102.301 11.9918 102.57 13.4282 102.57 15.0815ZM93.2231 15.0815C93.2231 15.9288 93.2696 16.6987 93.3626 17.391C93.4659 18.0833 93.6726 18.6362 93.9826 19.0495C94.3029 19.4525 94.7782 19.654 95.4086 19.654C96.0492 19.654 96.5246 19.4525 96.8346 19.0495C97.1446 18.6362 97.3461 18.0833 97.4391 17.391C97.5424 16.6987 97.5941 15.9288 97.5941 15.0815C97.5941 14.2238 97.5424 13.4488 97.4391 12.7565C97.3461 12.0642 97.1446 11.5165 96.8346 11.1135C96.5246 10.7002 96.0492 10.4935 95.4086 10.4935C94.7782 10.4935 94.3029 10.7002 93.9826 11.1135C93.6726 11.5165 93.4659 12.0642 93.3626 12.7565C93.2696 13.4488 93.2231 14.2238 93.2231 15.0815Z" fill="white"/>
<path d="M106.862 7.13C107.844 7.13 108.629 7.49683 109.218 8.2305C109.817 8.95383 110.117 9.951 110.117 11.222V26.598C110.117 27.6727 109.91 28.427 109.497 28.861C109.094 29.295 108.417 29.512 107.466 29.512H105.575L105.358 29.295V7.347L105.575 7.13H106.862ZM119.2 14.8955C119.2 16.6728 118.916 18.1763 118.347 19.406C117.789 20.6253 117.04 21.5502 116.1 22.1805C115.16 22.8108 114.121 23.126 112.984 23.126C111.91 23.126 110.954 22.9038 110.117 22.4595C109.29 22.0048 108.536 21.5708 107.854 21.1575L108.629 17.732C109.239 18.2177 109.848 18.6362 110.458 18.9875C111.078 19.3388 111.636 19.5145 112.132 19.5145C112.638 19.5145 113.041 19.3285 113.341 18.9565C113.651 18.5742 113.878 18.0368 114.023 17.3445C114.168 16.6418 114.24 15.8152 114.24 14.8645C114.24 13.9035 114.157 13.1233 113.992 12.524C113.837 11.9143 113.615 11.47 113.325 11.191C113.046 10.912 112.726 10.7725 112.364 10.7725C112.044 10.7725 111.662 10.8707 111.217 11.067C110.783 11.2633 110.355 11.6457 109.931 12.214C109.518 12.772 109.171 13.5987 108.892 14.694L107.807 11.9505C107.911 11.1135 108.231 10.3075 108.768 9.5325C109.306 8.7575 109.993 8.122 110.83 7.626C111.677 7.13 112.607 6.882 113.62 6.882C114.881 6.882 115.924 7.223 116.751 7.905C117.578 8.587 118.192 9.5325 118.595 10.7415C118.998 11.9402 119.2 13.3248 119.2 14.8955Z" fill="white"/>
<path d="M128 20.0095C128 19.781 128.032 19.4254 128.097 18.9429C128.175 18.4603 128.297 18.0476 128.465 17.7048C128.853 17.4889 129.325 17.3175 129.881 17.1905C130.45 17.0635 130.993 17 131.51 17C132.014 17 132.55 17.0635 133.119 17.1905C133.688 17.3175 134.166 17.4889 134.554 17.7048C134.722 18.0476 134.838 18.4603 134.903 18.9429C134.968 19.4254 135 19.781 135 20.0095C135 20.2381 134.968 20.5937 134.903 21.0762C134.838 21.5587 134.722 21.9714 134.554 22.3143C134.166 22.5556 133.688 22.727 133.119 22.8286C132.55 22.9429 132.014 23 131.51 23C130.993 23 130.45 22.9429 129.881 22.8286C129.325 22.727 128.853 22.5556 128.465 22.3143C128.297 21.9714 128.175 21.5587 128.097 21.0762C128.032 20.5937 128 20.2381 128 20.0095Z" fill="#DF4444"/>
<rect y="30" width="55" height="3" rx="1.5" fill="#DF4444"/>
</svg>
