<svg width="31" height="31" viewBox="0 0 31 31" fill="none" xmlns="http://www.w3.org/2000/svg">
<path d="M29.7355 7.31364C29.4662 6.82344 29.0806 6.41494 28.6163 6.12797C28.1519 5.84101 27.6247 5.68538 27.0861 5.67627H7.13777L6.23386 1.9758C6.14253 1.61859 5.93878 1.30439 5.65579 1.08437C5.37279 0.864351 5.02724 0.751482 4.67539 0.764144H1.55846C1.14513 0.764144 0.748732 0.936652 0.456464 1.24372C0.164195 1.55079 0 1.96726 0 2.40152C0 2.83578 0.164195 3.25225 0.456464 3.55932C0.748732 3.86638 1.14513 4.03889 1.55846 4.03889H3.49096L7.79232 20.8383C7.88365 21.1956 8.0874 21.5098 8.37039 21.7298C8.65338 21.9498 8.99894 22.0627 9.35079 22.05H23.377C23.6648 22.0491 23.9467 21.9645 24.1915 21.8055C24.4363 21.6465 24.6345 21.4195 24.764 21.1494L29.8758 10.4083C30.0973 9.92036 30.2005 9.38241 30.176 8.84243C30.1515 8.30244 30.0002 7.77723 29.7355 7.31364Z" fill="black"/>
<path d="M8.57158 30.2369C9.86266 30.2369 10.9093 29.1373 10.9093 27.7808C10.9093 26.4244 9.86266 25.3248 8.57158 25.3248C7.28051 25.3248 6.23389 26.4244 6.23389 27.7808C6.23389 29.1373 7.28051 30.2369 8.57158 30.2369Z" fill="black"/>
<path d="M24.1561 30.2369C25.4471 30.2369 26.4938 29.1373 26.4938 27.7808C26.4938 26.4244 25.4471 25.3248 24.1561 25.3248C22.865 25.3248 21.8184 26.4244 21.8184 27.7808C21.8184 29.1373 22.865 30.2369 24.1561 30.2369Z" fill="black"/>
</svg>
